<svg width="106" height="24" viewBox="0 0 106 24" fill="none" xmlns="http://www.w3.org/2000/svg">
<path d="M33 23.753V0.707996H34.25V4.333C34.3976 4.17226 34.5339 4.00152 34.658 3.822C35.702 1.656 37.904 0.288996 40.308 0.315996C43.158 0.230996 45.474 1.286 46.835 3.822C47.7011 5.39747 48.1777 7.15728 48.225 8.95448C48.2723 10.7517 47.889 12.5341 47.107 14.153C45.839 16.995 42.707 18.408 39.354 17.889C38.3105 17.8003 37.3059 17.4516 36.4318 16.8748C35.5577 16.298 34.842 15.5115 34.35 14.587V23.752L33 23.753ZM34.25 8.86L34.53 11.566C35.024 14.646 36.845 16.466 39.704 16.808C41.0466 17.0287 42.4242 16.777 43.602 16.0958C44.7798 15.4145 45.6849 14.3459 46.163 13.072C47.275 10.422 47.193 7.422 45.943 4.834C45.4327 3.69208 44.5647 2.74727 43.4699 2.14236C42.3752 1.53745 41.1133 1.3053 39.875 1.481C38.7126 1.56556 37.6055 2.01003 36.7073 2.75266C35.8091 3.4953 35.1645 4.49923 34.863 5.625C34.5968 6.69034 34.3921 7.77013 34.25 8.859V8.86ZM73.748 11.992C73.5584 13.6146 72.786 15.1131 71.5744 16.2088C70.3627 17.3046 68.7944 17.923 67.161 17.949C61.919 18.213 59.459 14.732 59.068 10.715C58.7961 8.53356 59.1502 6.31978 60.089 4.332C60.7424 2.96839 61.8129 1.84819 63.1455 1.1337C64.4782 0.419211 66.0036 0.147523 67.501 0.357996C68.9245 0.478989 70.2738 1.04459 71.3582 1.97474C72.4425 2.9049 73.2068 4.1525 73.543 5.541C73.8093 6.80583 74.0053 8.08446 74.13 9.371H60.363C60.108 13.013 62.065 15.941 64.839 16.647C68.294 17.497 71.247 16 72.319 12.715C72.557 11.872 72.991 11.753 73.757 11.992H73.748ZM60.353 8.205H72.667C72.59 4.325 70.174 1.505 66.897 1.473C63.197 1.413 60.514 4.12 60.353 8.205V8.205ZM76.293 12.077H77.5C77.5443 12.9662 77.8331 13.826 78.3345 14.5617C78.8359 15.2974 79.5306 15.8806 80.342 16.247C81.3609 16.7055 82.47 16.9284 83.5869 16.8989C84.7038 16.8695 85.7997 16.5885 86.793 16.077C87.3345 15.8332 87.788 15.4291 88.0924 14.9192C88.3968 14.4093 88.5373 13.8183 88.495 13.226C88.5262 12.6548 88.3702 12.0889 88.0508 11.6143C87.7314 11.1397 87.2659 10.7822 86.725 10.596C85.397 10.102 83.985 9.83 82.632 9.396C81.2241 8.99516 79.8474 8.49182 78.513 7.89C76.333 6.826 76.198 2.682 78.666 1.37C79.9297 0.656907 81.3519 0.271605 82.8027 0.249246C84.2536 0.226888 85.6869 0.568185 86.972 1.242C88.566 2.122 89.447 3.899 89.185 5.702H88.15C88.15 5.652 88.056 5.60799 88.056 5.55699C87.928 2.25699 85.154 1.225 82.176 1.515C81.276 1.615 80.423 1.887 79.623 2.289C79.1421 2.50861 78.7413 2.87228 78.4762 3.32966C78.211 3.78705 78.0946 4.31553 78.143 4.84199C78.144 5.36885 78.3082 5.88246 78.6129 6.31222C78.9177 6.74198 79.3481 7.06679 79.845 7.242C81.145 7.719 82.525 8.025 83.87 8.399L87.12 9.249C87.8587 9.49146 88.5064 9.95244 88.9774 10.571C89.4484 11.1895 89.7206 11.9364 89.758 12.713C90.018 14.458 89.128 16.173 87.554 16.968C84.712 18.576 80.031 18.151 77.946 16.118C76.879 15.045 76.284 13.588 76.296 12.076L76.293 12.077ZM105.073 5.70299H103.941C103.941 5.54999 103.881 5.403 103.864 5.286C103.846 4.43747 103.537 3.62095 102.988 2.97334C102.44 2.32572 101.685 1.88639 100.851 1.729C99.2778 1.27777 97.5996 1.35862 96.077 1.959C95.475 2.13129 94.9449 2.49383 94.566 2.99241C94.1871 3.49098 93.9798 4.09881 93.975 4.725C93.9534 5.33985 94.1449 5.94329 94.517 6.43326C94.8891 6.92323 95.4189 7.26967 96.017 7.414L101.191 8.742C101.751 8.87619 102.302 9.04382 102.841 9.244C104.491 9.844 105.611 11.376 105.661 13.127C105.686 13.9841 105.451 14.8286 104.987 15.5496C104.523 16.2707 103.851 16.8345 103.061 17.167C101.86 17.7125 100.559 18.0011 99.2396 18.0144C97.9207 18.0276 96.6136 17.7652 95.402 17.244C94.4056 16.8143 93.5647 16.0897 92.9926 15.1677C92.4205 14.2457 92.1446 13.1706 92.202 12.087H93.308C93.724 14.092 95.101 15.762 96.99 16.552C98.879 17.342 101.036 17.148 102.754 16.036C103.269 15.7679 103.697 15.3578 103.987 14.8541C104.276 14.3504 104.416 13.7743 104.388 13.194C104.414 12.6224 104.252 12.058 103.928 11.5864C103.604 11.1149 103.135 10.7619 102.592 10.581C101.264 10.087 99.852 9.824 98.499 9.381C97.0832 8.98633 95.6982 8.48867 94.355 7.892C92.227 6.845 92.057 2.735 94.483 1.424C95.7623 0.680979 97.2122 0.281811 98.6916 0.265339C100.171 0.248866 101.629 0.61565 102.925 1.33C103.666 1.77225 104.262 2.42043 104.642 3.19561C105.021 3.97079 105.167 4.83951 105.061 5.69599L105.073 5.70299ZM30.943 17.533C30.4974 17.7015 30.0055 17.701 29.5603 17.5317C29.115 17.3624 28.7471 17.036 28.526 16.614L24.126 10.529L23.488 9.679L18.382 16.623C18.1739 17.0268 17.8259 17.3411 17.403 17.5071C16.9801 17.6731 16.5112 17.6794 16.084 17.525L22.662 8.7L16.542 0.725996C17.45 0.397996 18.462 0.753996 18.967 1.576L23.527 7.736L28.114 1.6C28.3237 1.20308 28.6719 0.897069 29.0925 0.740162C29.513 0.583255 29.9766 0.586399 30.395 0.748996L28.02 3.9L24.803 8.087C24.7137 8.16673 24.6423 8.26442 24.5934 8.37368C24.5444 8.48293 24.5192 8.60129 24.5192 8.721C24.5192 8.8407 24.5444 8.95906 24.5934 9.06831C24.6423 9.17757 24.7137 9.27526 24.803 9.355L30.93 17.533H30.943ZM58.873 0.640997V1.841C58.0123 1.78454 57.1493 1.90919 56.3397 2.20689C55.5301 2.50459 54.792 2.96874 54.1729 3.56936C53.5538 4.16999 53.0675 4.89375 52.7454 5.69394C52.4233 6.49413 52.2726 7.35296 52.303 8.215C52.303 11.0177 52.303 13.8203 52.303 16.623V17.576H51.086V0.715995H52.286V4.171C53.758 1.651 56.03 0.715997 58.881 0.647997L58.873 0.640997ZM0.332994 8.59L0.868994 5.943C2.34099 0.708996 8.34099 -1.469 12.469 1.773C14.886 3.671 15.489 6.36 15.371 9.39H1.75399C1.53399 14.802 5.43899 18.07 10.434 16.402C12.08 15.802 13.319 14.434 13.727 12.734C13.991 11.884 14.427 11.738 15.225 11.984C15.0919 13.0201 14.7256 14.0126 14.1537 14.8868C13.5818 15.7609 12.8191 16.4941 11.923 17.031C10.4426 17.8406 8.74401 18.1614 7.07025 17.9475C5.39649 17.7336 3.83323 16.9959 2.60399 15.84C1.38799 14.473 0.653994 12.745 0.510994 10.92C0.510994 10.62 0.410994 10.34 0.340994 10.07C0.334327 9.56533 0.330994 9.072 0.330994 8.59H0.332994ZM1.77099 8.224H14.085C14.008 4.301 11.532 1.518 8.22999 1.492C4.55399 1.442 1.92399 4.164 1.76199 8.207L1.77099 8.224Z" fill="black"/>
</svg>
