<?xml version="1.0" encoding="UTF-8" standalone="no"?>
<!DOCTYPE svg PUBLIC "-//W3C//DTD SVG 1.1//EN" "http://www.w3.org/Graphics/SVG/1.1/DTD/svg11.dtd">
<svg width="100%" height="100%" viewBox="0 0 443 271" version="1.1" xmlns="http://www.w3.org/2000/svg" xmlns:xlink="http://www.w3.org/1999/xlink" xml:space="preserve" xmlns:serif="http://www.serif.com/" style="fill-rule:evenodd;clip-rule:evenodd;stroke-linejoin:round;stroke-miterlimit:2;">
    <g transform="matrix(1,0,0,1,-78.0179,-164.274)">
        <g id="Layer-1" serif:id="Layer 1">
            <g transform="matrix(1,0,0,1,296.686,325.843)">
                <path d="M0,109.384C-1.46,109.384 -2.913,109.002 -4.19,108.263L-17.53,100.37C-19.521,99.256 -18.548,98.861 -17.892,98.632C-15.234,97.71 -14.697,97.497 -11.86,95.888C-11.565,95.722 -11.173,95.785 -10.868,95.964L-0.62,102.049C-0.249,102.255 0.276,102.255 0.617,102.049L40.571,78.988C40.942,78.776 41.181,78.348 41.181,77.907L41.181,31.799C41.181,31.348 40.942,30.927 40.561,30.698L0.624,7.657C0.255,7.442 -0.235,7.442 -0.607,7.657L-40.534,30.705C-40.922,30.927 -41.168,31.361 -41.168,31.799L-41.168,77.907C-41.168,78.348 -40.922,78.766 -40.537,78.975L-29.593,85.299C-23.654,88.268 -20.018,84.771 -20.018,81.258L-20.018,35.734C-20.018,35.09 -19.501,34.583 -18.857,34.583L-13.791,34.583C-13.157,34.583 -12.633,35.09 -12.633,35.734L-12.633,81.258C-12.633,89.183 -16.949,93.728 -24.464,93.728C-26.773,93.728 -28.591,93.728 -33.667,91.227L-44.143,85.196C-46.731,83.7 -48.334,80.903 -48.334,77.907L-48.334,31.799C-48.334,28.804 -46.731,26.007 -44.143,24.517L-4.19,1.43C-1.662,0 1.699,0 4.207,1.43L44.157,24.517C46.745,26.013 48.354,28.804 48.354,31.799L48.354,77.907C48.354,80.903 46.745,83.689 44.157,85.196L4.207,108.263C2.929,109.002 1.48,109.384 0,109.384" style="fill:rgb(101,159,102);fill-rule:nonzero;"/>
            </g>
            <g transform="matrix(1,0,0,1,309.027,359.198)">
                <path d="M0,44.263C-17.483,44.263 -21.146,36.238 -21.146,29.507C-21.146,28.866 -20.632,28.355 -19.991,28.355L-14.826,28.355C-14.249,28.355 -13.768,28.77 -13.678,29.334C-12.898,34.592 -10.573,37.246 0,37.246C8.417,37.246 12,35.342 12,30.877C12,28.302 10.984,26.391 -2.096,25.111C-13.028,24.029 -19.789,21.614 -19.789,12.869C-19.789,4.807 -12.995,0 -1.602,0C11.197,0 17.53,4.442 18.333,13.974C18.363,14.302 18.247,14.617 18.028,14.863C17.809,15.092 17.504,15.231 17.182,15.231L11.997,15.231C11.459,15.231 10.984,14.849 10.875,14.329C9.631,8.795 6.605,7.027 -1.602,7.027C-10.792,7.027 -11.86,10.228 -11.86,12.627C-11.86,15.533 -10.6,16.379 1.808,18.021C14.086,19.644 19.919,21.942 19.919,30.572C19.919,39.277 12.66,44.263 0,44.263" style="fill:rgb(101,159,102);fill-rule:nonzero;"/>
            </g>
            <g transform="matrix(1,0,0,1,357.677,355.635)">
                <path d="M0,-1.06L1.344,-1.06C2.442,-1.06 2.647,-1.833 2.647,-2.281C2.647,-3.464 1.831,-3.464 1.383,-3.464L0,-3.464L0,-1.06ZM-1.632,-4.849L1.344,-4.849C2.362,-4.849 4.359,-4.849 4.359,-2.566C4.359,-0.977 3.341,-0.652 2.727,-0.448C3.911,-0.367 3.991,0.408 4.153,1.508C4.236,2.199 4.359,3.382 4.602,3.788L2.77,3.788C2.727,3.382 2.442,1.181 2.442,1.06C2.322,0.57 2.156,0.327 1.546,0.327L0.04,0.327L0.04,3.788L-1.632,3.788L-1.632,-4.849ZM-5.195,-0.551C-5.195,3.035 -2.303,5.928 1.241,5.928C4.827,5.928 7.72,2.974 7.72,-0.551C7.72,-4.135 4.787,-6.987 1.241,-6.987C-2.263,-6.987 -5.195,-4.177 -5.195,-0.551M8.961,-0.529C8.961,3.707 5.497,7.171 1.261,7.171C-2.936,7.171 -6.439,3.749 -6.439,-0.529C-6.439,-4.889 -2.853,-8.231 1.261,-8.231C5.418,-8.231 8.961,-4.889 8.961,-0.529" style="fill:rgb(101,159,102);fill-rule:nonzero;"/>
            </g>
            <g transform="matrix(1,0,0,1,172.964,293.658)">
                <path d="M0,-38.825C0,-40.666 -0.969,-42.358 -2.558,-43.271L-44.917,-67.648C-45.633,-68.069 -46.436,-68.289 -47.249,-68.322L-47.687,-68.322C-48.496,-68.289 -49.299,-68.069 -50.026,-67.648L-92.385,-43.271C-93.964,-42.358 -94.946,-40.666 -94.946,-38.825L-94.853,26.816C-94.853,27.729 -94.379,28.578 -93.575,29.026C-92.789,29.497 -91.817,29.497 -91.034,29.026L-65.86,14.611C-64.268,13.665 -63.299,11.997 -63.299,10.172L-63.299,-20.495C-63.299,-22.323 -62.331,-24.016 -60.745,-24.924L-50.026,-31.098C-49.226,-31.56 -48.354,-31.785 -47.461,-31.785C-46.589,-31.785 -45.693,-31.56 -44.917,-31.098L-34.201,-24.924C-32.615,-24.016 -31.643,-22.323 -31.643,-20.495L-31.643,10.172C-31.643,11.997 -30.661,13.676 -29.079,14.611L-3.912,29.026C-3.122,29.497 -2.136,29.497 -1.354,29.026C-0.574,28.578 -0.083,27.729 -0.083,26.816L0,-38.825Z" style="fill:rgb(51,51,51);"/>
            </g>
            <g transform="matrix(1,0,0,1,372.849,210.051)">
                <path d="M0,78.961C0,79.417 -0.244,79.84 -0.64,80.067L-15.19,88.454C-15.584,88.681 -16.072,88.681 -16.467,88.454L-31.016,80.067C-31.413,79.84 -31.656,79.417 -31.656,78.961L-31.656,62.161C-31.656,61.705 -31.413,61.282 -31.017,61.053L-16.468,52.649C-16.072,52.42 -15.584,52.42 -15.188,52.649L-0.639,61.053C-0.244,61.282 0,61.705 0,62.161L0,78.961ZM3.932,-45.453C3.139,-45.894 2.171,-45.884 1.388,-45.425C0.607,-44.965 0.126,-44.126 0.126,-43.219L0.126,21.788C0.126,22.426 -0.216,23.018 -0.768,23.338C-1.322,23.659 -2.005,23.659 -2.559,23.338L-13.169,17.226C-14.752,16.314 -16.699,16.315 -18.281,17.228L-60.657,41.683C-62.241,42.597 -63.216,44.286 -63.216,46.114L-63.216,95.034C-63.216,96.863 -62.241,98.551 -60.658,99.467L-18.285,123.941C-16.701,124.855 -14.75,124.855 -13.166,123.941L29.215,99.467C30.797,98.551 31.773,96.863 31.773,95.034L31.773,-26.913C31.773,-28.767 30.769,-30.478 29.148,-31.382L3.932,-45.453Z" style="fill:rgb(51,51,51);"/>
            </g>
            <g transform="matrix(1,0,0,1,517.884,287.665)">
                <path d="M0,-15.893C1.576,-16.809 2.546,-18.494 2.546,-20.317L2.546,-32.172C2.546,-33.995 1.576,-35.682 -0.002,-36.598L-42.105,-61.043C-43.689,-61.964 -45.645,-61.966 -47.232,-61.05L-89.593,-36.595C-91.175,-35.681 -92.151,-33.992 -92.151,-32.164L-92.151,16.744C-92.151,18.583 -91.163,20.28 -89.566,21.189L-47.469,45.177C-45.917,46.063 -44.014,46.073 -42.452,45.205L-16.989,31.052C-16.182,30.603 -15.679,29.755 -15.674,28.833C-15.667,27.91 -16.158,27.056 -16.958,26.597L-59.587,2.13C-60.383,1.674 -60.872,0.826 -60.872,-0.09L-60.872,-15.417C-60.872,-16.331 -60.385,-17.177 -59.592,-17.633L-46.325,-25.282C-45.535,-25.738 -44.56,-25.738 -43.771,-25.282L-30.497,-17.633C-29.704,-17.177 -29.216,-16.331 -29.216,-15.417L-29.216,-3.358C-29.216,-2.442 -28.727,-1.596 -27.934,-1.14C-27.141,-0.682 -26.164,-0.685 -25.373,-1.145L0,-15.893Z" style="fill:rgb(51,51,51);"/>
            </g>
            <g transform="matrix(1,0,0,1,472.591,289.953)">
                <path d="M0,-20.472C0.304,-20.648 0.678,-20.648 0.982,-20.472L9.113,-15.781C9.417,-15.605 9.604,-15.282 9.604,-14.93L9.604,-5.541C9.604,-5.19 9.417,-4.866 9.113,-4.69L0.982,0.001C0.678,0.176 0.304,0.176 0,0.001L-8.125,-4.69C-8.428,-4.866 -8.616,-5.19 -8.616,-5.541L-8.616,-14.93C-8.616,-15.282 -8.428,-15.605 -8.125,-15.781L0,-20.472Z" style="fill:rgb(101,159,102);"/>
            </g>
            <g transform="matrix(94.2039,0,0,-94.2039,194.196,280.03)">
                <path d="M0.473,0.564L0.027,0.307C0.01,0.297 0,0.279 0,0.26L0,-0.255C0,-0.274 0.01,-0.292 0.027,-0.302L0.473,-0.559C0.49,-0.569 0.51,-0.569 0.527,-0.559L0.973,-0.302C0.99,-0.292 1,-0.274 1,-0.255L1,0.26C1,0.279 0.99,0.297 0.973,0.307L0.527,0.564C0.519,0.569 0.509,0.572 0.5,0.572C0.491,0.572 0.481,0.569 0.473,0.564Z" style="fill:url(#_Linear1);fill-rule:nonzero;"/>
            </g>
            <g>
                <clipPath id="_clip2">
                    <path d="M238.766,226.869L196.736,251.123C195.164,252.029 194.197,253.705 194.197,255.52L194.197,304.066C194.197,305.88 195.164,307.555 196.734,308.463L238.765,332.737C240.336,333.644 242.271,333.644 243.842,332.737L285.862,308.463C287.433,307.555 288.4,305.88 288.4,304.066L288.4,255.518C288.4,253.705 287.433,252.029 285.862,251.123L243.841,226.869C243.056,226.415 242.18,226.189 241.303,226.189C240.427,226.189 239.551,226.415 238.766,226.869Z" clip-rule="nonzero"/>
                </clipPath>
                <g clip-path="url(#_clip2)">
                    <g opacity="0.66">
                        <g transform="matrix(1,0,0,1,285.649,308.815)">
                            <path d="M0,-57.692L-41.843,-81.947C-42.262,-82.189 -42.71,-82.361 -43.17,-82.474L-90.466,-1.566C-90.068,-1.087 -89.588,-0.67 -89.038,-0.352L-46.945,23.922C-45.69,24.646 -44.238,24.782 -42.902,24.35L1.286,-56.564C0.94,-57.006 0.517,-57.394 0,-57.692" style="fill:rgb(181,181,181);fill-rule:nonzero;"/>
                        </g>
                    </g>
                </g>
            </g>
            <g transform="matrix(97.1778,0,0,-97.1778,193.545,279.734)">
                <path d="M0.488,0.551C0.48,0.55 0.472,0.548 0.465,0.544L0.037,0.297L0.502,-0.551C0.507,-0.55 0.512,-0.548 0.516,-0.545L0.948,-0.296C0.964,-0.286 0.972,-0.269 0.972,-0.25L0.972,-0.248L0.505,0.549C0.501,0.55 0.496,0.551 0.491,0.551C0.49,0.551 0.489,0.551 0.488,0.551Z" style="fill:url(#_Linear3);fill-rule:nonzero;"/>
            </g>
        </g>
    </g>
    <defs>
        <linearGradient id="_Linear1" x1="0" y1="0" x2="1" y2="0" gradientUnits="userSpaceOnUse" gradientTransform="matrix(1,0,0,-1,0,0.00241012)"><stop offset="0" style="stop-color:rgb(35,31,32);stop-opacity:1"/><stop offset="0.01" style="stop-color:rgb(35,31,32);stop-opacity:1"/><stop offset="1" style="stop-color:rgb(121,123,125);stop-opacity:1"/></linearGradient>
        <linearGradient id="_Linear3" x1="0" y1="0" x2="1" y2="0" gradientUnits="userSpaceOnUse" gradientTransform="matrix(1,0,0,-1,0,1.07432e-06)"><stop offset="0" style="stop-color:rgb(121,123,125);stop-opacity:1"/><stop offset="0.99" style="stop-color:rgb(35,31,32);stop-opacity:1"/><stop offset="1" style="stop-color:rgb(35,31,32);stop-opacity:1"/></linearGradient>
    </defs>
</svg>
